<svg xmlns="http://www.w3.org/2000/svg" width="33.074" height="45.502" viewBox="0 0 33.074 45.502">
  <g id="antenna_3" data-name="antenna 3" transform="translate(0.5 0.5)">
    <path id="Path_12" data-name="Path 12" d="M176.382,170.317H174.06a2.888,2.888,0,0,0-2.11-2.11V149.674a2.878,2.878,0,1,0-1.371,0v18.533a2.888,2.888,0,0,0-2.11,2.11h-2.322A2.15,2.15,0,0,0,164,172.465v2.193a.685.685,0,0,0,.685.685h13.159a.685.685,0,0,0,.685-.685v-2.193A2.15,2.15,0,0,0,176.382,170.317Zm-6.625-23.439a1.508,1.508,0,1,1,1.508,1.508A1.509,1.509,0,0,1,169.757,146.878Zm1.508,22.616a1.508,1.508,0,0,1,1.341.822h-2.683A1.508,1.508,0,0,1,171.265,169.495Zm5.894,4.478H165.371v-1.508a.778.778,0,0,1,.777-.777h10.234a.778.778,0,0,1,.777.777Z" transform="translate(-155.228 -130.841)" stroke="#000" stroke-width="1"/>
    <path id="Path_13" data-name="Path 13" d="M84.037,0A16.055,16.055,0,0,0,68,16.037,15.879,15.879,0,0,0,71.245,25.7a16.173,16.173,0,0,0,8.211,5.7.685.685,0,0,0,.391-1.314,14.793,14.793,0,0,1-7.51-5.212,14.519,14.519,0,0,1-2.966-8.839,14.666,14.666,0,0,1,29.333,0,14.519,14.519,0,0,1-2.966,8.839,14.794,14.794,0,0,1-7.51,5.212.685.685,0,1,0,.391,1.314,16.173,16.173,0,0,0,8.211-5.7,15.879,15.879,0,0,0,3.245-9.667A16.055,16.055,0,0,0,84.037,0Z" transform="translate(-68)" stroke="#000" stroke-width="1"/>
    <path id="Path_14" data-name="Path 14" d="M171.265,97.371a5.887,5.887,0,0,1,3.929,10.278.685.685,0,1,0,.915,1.02,7.265,7.265,0,1,0-9.688,0,.685.685,0,0,0,.915-1.02,5.887,5.887,0,0,1,3.929-10.278Z" transform="translate(-155.228 -87.228)" stroke="#000" stroke-width="1"/>
    <path id="Path_15" data-name="Path 15" d="M132.037,70.383a.684.684,0,0,0,.274-.058,11.651,11.651,0,1,0-9.322,0,.685.685,0,0,0,.549-1.256,10.28,10.28,0,1,1,8.223,0,.685.685,0,0,0,.275,1.313Z" transform="translate(-111.614 -43.614)" stroke="#000" stroke-width="1"/>
  </g>
</svg>
