<svg xmlns="http://www.w3.org/2000/svg" width="22.139" height="41.607" viewBox="0 0 22.139 41.607">
  <g id="Component_2_1" data-name="Component 2 – 1" transform="translate(0.5 0.5)">
    <path id="Path_16" data-name="Path 16" d="M216.256,12.98l-2.442,3.855h3.6a.9.9,0,0,1,.771,1.349l-3.341,5.269a.882.882,0,0,1-1.478-.964l2.442-3.855h-3.6a.883.883,0,0,1-.771-1.349l3.277-5.269a.911.911,0,0,1,1.542.964ZM219.533,1.8V3.856h3.148a2.7,2.7,0,0,1,2.7,2.634V37.973a2.7,2.7,0,0,1-2.7,2.634H206.875a2.689,2.689,0,0,1-2.634-2.634V6.49a2.689,2.689,0,0,1,2.634-2.634h3.213V1.8A1.743,1.743,0,0,1,211.823,0h5.911a1.8,1.8,0,0,1,1.8,1.8ZM206.041,31.612v6.361a.851.851,0,0,0,.835.835h15.806a.866.866,0,0,0,.9-.835V31.612Zm.835-25.958a.851.851,0,0,0-.835.835V29.877h17.541V6.49a.866.866,0,0,0-.9-.835H206.876ZM211.823,1.8V3.856h5.911V1.8Z" transform="translate(-204.241 -0.001)" stroke="#000" stroke-width="1" fill-rule="evenodd"/>
  </g>
</svg>
