<svg id="Component_3_1" data-name="Component 3 – 1" xmlns="http://www.w3.org/2000/svg" width="42.056" height="39.049" viewBox="0 0 42.056 39.049">
  <path id="Path_17" data-name="Path 17" d="M168.162,162.893l-4.011-1.006a1.5,1.5,0,1,0-.731,2.913l4,1a1.513,1.513,0,0,1,1.142,1.46v18.144a1.484,1.484,0,0,1-.571,1.175,1.51,1.51,0,0,1-1.3.283l-6.95-1.738c-.061-.016-.126-.023-.188-.038V174.442a1.5,1.5,0,0,0-3,0V185.03c-.037.007-.076.009-.112.016l-11.9,2.368V174.443a1.5,1.5,0,0,0-3,0v12.882l-7.869-1.959a1.517,1.517,0,0,1-1.143-1.461V165.761a1.484,1.484,0,0,1,.571-1.175,1.51,1.51,0,0,1,1.3-.282l2.568.646a1.5,1.5,0,0,0,.733-2.913l-2.578-.649a4.52,4.52,0,0,0-3.879.835,4.473,4.473,0,0,0-1.72,3.538v18.144a4.524,4.524,0,0,0,3.407,4.373l8.448,2.1a7.71,7.71,0,0,0,1.824.22,7.14,7.14,0,0,0,1.455-.147l12.388-2.464a4.316,4.316,0,0,1,1.959.045l6.977,1.745a4.513,4.513,0,0,0,5.6-4.375V167.263a4.518,4.518,0,0,0-3.4-4.37Z" transform="translate(-129.512 -151.553)"/>
  <path id="Path_18" data-name="Path 18" d="M264.512,82.03c2.686,0,9.012-7.071,9.012-13.518a9.012,9.012,0,1,0-18.024,0C255.5,74.96,261.826,82.03,264.512,82.03Zm0-19.526a6.015,6.015,0,0,1,6.008,6.008c0,4.708-4.5,9.686-6.008,10.458C263,78.2,258.5,73.219,258.5,68.512A6.015,6.015,0,0,1,264.512,62.5Z" transform="translate(-243.485 -59.5)"/>
  <path id="Path_19" data-name="Path 19" d="M337.261,139.756a1.5,1.5,0,1,1-1.5-1.5,1.5,1.5,0,0,1,1.5,1.5" transform="translate(-314.732 -130.744)"/>
</svg>
