<svg id="Component_6_1" data-name="Component 6 – 1" xmlns="http://www.w3.org/2000/svg" width="42" height="42.282" viewBox="0 0 42 42.282">
  <path id="Path_22" data-name="Path 22" d="M301.177,95.5l1.829,3.168a.813.813,0,0,0,1.408-.813l-1.829-3.168a.813.813,0,0,0-1.408.813" transform="translate(-284.174 -88.719)"/>
  <path id="Path_23" data-name="Path 23" d="M151.9,65.645a.813.813,0,0,0-.813-.813h-8.638l-4.319,7.481a.813.813,0,1,0,1.408.813l3.85-6.668h7.7a.813.813,0,0,0,.813-.813" transform="translate(-134.803 -61.741)"/>
  <path id="Path_24" data-name="Path 24" d="M139.875,49.868l-4.559,7.9a1.459,1.459,0,0,1-1.26.728h-9.117a1.459,1.459,0,0,1-1.26-.728l-4.559-7.9a1.458,1.458,0,0,1,0-1.455l4.559-7.9h0a1.459,1.459,0,0,1,1.26-.727h9.117a1.459,1.459,0,0,1,1.26.728l4.559,7.9a1.459,1.459,0,0,1,0,1.455m-17.6,10.164-4.559,7.9a1.46,1.46,0,0,1-1.261.728h-9.117a1.459,1.459,0,0,1-1.26-.728l-4.559-7.9a1.459,1.459,0,0,1,0-1.455l4.559-7.9a1.459,1.459,0,0,1,1.26-.728h9.117a1.459,1.459,0,0,1,1.26.728l4.559,7.9a1.458,1.458,0,0,1,0,1.455M106.073,47.6l-4.559-7.9a1.459,1.459,0,0,1,0-1.455l4.559-7.9a1.459,1.459,0,0,1,1.26-.728h9.117a1.459,1.459,0,0,1,1.26.728l4.559,7.9a1.458,1.458,0,0,1,0,1.455l-4.559,7.9h0a1.459,1.459,0,0,1-1.26.727h-9.117a1.459,1.459,0,0,1-1.26-.728m35.21,0-4.559-7.9a3.09,3.09,0,0,0-2.669-1.541h-9.117a3.06,3.06,0,0,0-.924.144,3.066,3.066,0,0,0-.337-.872l-4.559-7.9A3.09,3.09,0,0,0,116.451,28h-9.117a3.09,3.09,0,0,0-2.669,1.541l-4.559,7.9a3.089,3.089,0,0,0,0,3.081l4.559,7.9a3.054,3.054,0,0,0,.587.728,3.062,3.062,0,0,0-.587.728l-4.559,7.9a3.089,3.089,0,0,0,0,3.081l4.559,7.9a3.09,3.09,0,0,0,2.669,1.541h9.117a3.09,3.09,0,0,0,2.669-1.541l4.559-7.9a3.067,3.067,0,0,0,.337-.872,3.062,3.062,0,0,0,.924.144h9.117a3.09,3.09,0,0,0,2.669-1.541l4.559-7.9a3.089,3.089,0,0,0,0-3.081" transform="translate(-99.695 -27.998)"/>
  <path id="Path_25" data-name="Path 25" d="M499.223,270.418a.813.813,0,0,0-1.111.3l-4.084,7.074a.813.813,0,1,0,1.408.813l4.084-7.074a.813.813,0,0,0-.3-1.111" transform="translate(-460.845 -249.98)"/>
  <path id="Path_26" data-name="Path 26" d="M495.838,190.343a.813.813,0,1,0,1.408-.813l-1.814-3.143a.813.813,0,1,0-1.408.813Z" transform="translate(-460.841 -172.727)"/>
  <path id="Path_27" data-name="Path 27" d="M139.366,354.809l-.965-1.672,1.835-3.178a.813.813,0,1,0-1.408-.813l-2.3,3.991,1.435,2.485a.813.813,0,0,0,1.408-.813" transform="translate(-133.433 -321.831)"/>
  <path id="Path_28" data-name="Path 28" d="M167.391,440.11a.813.813,0,1,0-1.408.813l1.465,2.537a.813.813,0,0,0,1.408-.813Z" transform="translate(-160.321 -405.163)"/>
</svg>
