<svg xmlns="http://www.w3.org/2000/svg" width="43.468" height="43.455" viewBox="0 0 43.468 43.455">
  <g id="Component_1_1" data-name="Component 1 – 1" transform="translate(0.501 0.501)">
    <path id="Path_20" data-name="Path 20" d="M318.036,226.22l-3.78,3.19a.074.074,0,0,0-.022.035l-1.588,4.691c-.039.121.187.278.286.2l3.78-3.19h0a.074.074,0,0,0,.022-.035l1.567-4.691C318.34,226.293,318.114,226.137,318.036,226.22Z" transform="translate(-294.236 -209.046)"/>
    <path id="Path_21" data-name="Path 21" d="M111.483,19.9,98.39,16.229l2.239-3.984c.174-.3-.36-.838-.668-.668l-3.984,2.239L92.315.732a1.359,1.359,0,0,0-2.517,0L86.122,13.816l-3.984-2.239c-.3-.174-.838.36-.668.668l2.239,3.984L70.616,19.9a1.22,1.22,0,0,0-.794,1.263,1.219,1.219,0,0,0,.794,1.259l13.019,3.658-2.17,3.992c-.173.3.36.838.668.668L86.117,28.5l3.672,13.084a1.365,1.365,0,0,0,2.526,0l3.671-13.084,3.984,2.239c.3.174.838-.36.668-.668l-2.248-3.984,13.08-3.672a1.22,1.22,0,0,0,.807-1.259,1.22,1.22,0,0,0-.794-1.263ZM90.817,1.088a.9.9,0,0,1,.434-.061L95.27,15.348,91.29,14.233a.869.869,0,0,0-.469,0l-3.992,1.12ZM70.98,21.393a.928.928,0,0,1-.061-.434L85.241,16.94l-1.12,3.984a.847.847,0,0,0,0,.469l1.12,3.992ZM91.29,41.23a.925.925,0,0,1-.434.061L86.838,26.97l3.988,1.12a.907.907,0,0,0,.464,0l3.992-1.12Zm4.34-15.5-4.574,1.3-4.57-1.3-1.3-4.574,1.28-4.57,4.591-1.272,4.57,1.28,1.3,4.574Zm15.558-4.37L96.866,25.382l1.115-3.988a.841.841,0,0,0,0-.469l-1.12-3.992,14.265,3.992a.943.943,0,0,1,.061.439Z" transform="translate(-69.816 0.067)" stroke="#000" stroke-width="1"/>
  </g>
</svg>
