<svg id="Component_5_1" data-name="Component 5 – 1" xmlns="http://www.w3.org/2000/svg" width="42" height="44.989" viewBox="0 0 42 44.989">
  <g id="Group_109" data-name="Group 109" transform="translate(-4096.197 -1763)">
    <path id="Path_84" data-name="Path 84" d="M275.1,194.2a6.99,6.99,0,1,1,6.99-6.99A7,7,0,0,1,275.1,194.2Zm0-12.574a5.584,5.584,0,1,0,5.585,5.585A5.59,5.59,0,0,0,275.1,181.624Z" transform="translate(3842.094 1596.759)"/>
    <path id="Path_85" data-name="Path 85" d="M275.1,194.2a6.99,6.99,0,1,1,6.99-6.99A7,7,0,0,1,275.1,194.2Zm0-12.574a5.584,5.584,0,1,0,5.585,5.585A5.59,5.59,0,0,0,275.1,181.624Z" transform="translate(3842.094 1596.759)"/>
    <path id="Path_86" data-name="Path 86" d="M436.424,24.161a3.847,3.847,0,1,1,3.847-3.846A3.85,3.85,0,0,1,436.424,24.161Zm0-6.287a2.441,2.441,0,1,0,2.441,2.441A2.444,2.444,0,0,0,436.424,17.874Z" transform="translate(3691.667 1746.532)"/>
    <path id="Path_87" data-name="Path 87" d="M107.824,327.179a3.846,3.846,0,1,1,3.846-3.846A3.85,3.85,0,0,1,107.824,327.179Zm0-6.287a2.44,2.44,0,1,0,2.44,2.44A2.443,2.443,0,0,0,107.824,320.892Z" transform="translate(3992.219 1469.379)"/>
    <path id="Path_88" data-name="Path 88" d="M308.784,461.1a3.846,3.846,0,1,1,3.847-3.846A3.85,3.85,0,0,1,308.784,461.1Zm0-6.287a2.44,2.44,0,1,0,2.441,2.44A2.443,2.443,0,0,0,308.784,454.812Z" transform="translate(3808.412 1346.89)"/>
    <path id="Path_89" data-name="Path 89" d="M509.737,255.411a3.847,3.847,0,1,1,3.846-3.847A3.851,3.851,0,0,1,509.737,255.411Zm0-6.287a2.441,2.441,0,1,0,2.44,2.44A2.444,2.444,0,0,0,509.737,249.124Z" transform="translate(3624.613 1535.021)"/>
    <path id="Path_90" data-name="Path 90" d="M163.217,56.075a3.847,3.847,0,1,1,3.846-3.846,3.851,3.851,0,0,1-3.846,3.846Zm0-6.287a2.441,2.441,0,1,0,2.44,2.441A2.444,2.444,0,0,0,163.217,49.788Z" transform="translate(3941.555 1717.342)"/>
    <path id="Path_91" data-name="Path 91" d="M379.89,95.605a.7.7,0,0,1-.58-1.1l6.138-8.986a.7.7,0,1,1,1.162.794L380.472,95.3a.7.7,0,0,1-.581.306Z" transform="translate(3740.5 1683.654)"/>
    <path id="Path_92" data-name="Path 92" d="M422.081,273.033a.692.692,0,0,1-.107-.008l-7.887-1.205a.7.7,0,0,1,.213-1.389l7.887,1.205a.7.7,0,0,1-.106,1.4Z" transform="translate(3709.125 1514.256)"/>
    <path id="Path_93" data-name="Path 93" d="M342.468,339.682a.7.7,0,0,1-.7-.7V328.234a.7.7,0,1,1,1.406,0v10.745A.7.7,0,0,1,342.468,339.682Z" transform="translate(3774.728 1462.021)"/>
    <path id="Path_94" data-name="Path 94" d="M225.339,123.383a.7.7,0,0,1-.571-.292l-5.676-7.883a.7.7,0,0,1,1.141-.821l5.676,7.883a.7.7,0,0,1-.57,1.113Z" transform="translate(3887.052 1657.238)"/>
    <path id="Path_95" data-name="Path 95" d="M178.335,297.2a.7.7,0,0,1-.3-1.341l8.628-3.986a.7.7,0,0,1,.589,1.277l-8.628,3.986a.7.7,0,0,1-.294.065Z" transform="translate(3924.852 1494.696)"/>
  </g>
</svg>
