<svg id="Component_7_1" data-name="Component 7 – 1" xmlns="http://www.w3.org/2000/svg" width="42" height="42.193" viewBox="0 0 42 42.193">
  <path id="Path_122" data-name="Path 122" d="M107.1,33.624V21.584l-9.8-5.275-9.8,5.275v12.04L97.3,38.9ZM98,36.932V27.324l7.7-4.146v9.606ZM104.924,22l-7.624,4.1L89.676,22,97.3,17.9ZM88.9,23.176l7.7,4.148v9.608l-7.7-4.148Z" transform="translate(-87.5 -16.309)"/>
  <path id="Path_123" data-name="Path 123" d="M377.3,261.31l-9.8,5.275v12.04l9.8,5.277,9.8-5.277v-12.04Zm7.624,5.7-7.624,4.1-7.624-4.1,7.624-4.1ZM368.9,268.177l7.7,4.148v9.608l-7.7-4.148Zm9.1,13.756v-9.608l7.7-4.146v9.606Z" transform="translate(-345.1 -241.71)"/>
  <path id="Path_124" data-name="Path 124" d="M382.2,83.65v6.009l-.785-.785-.99.99,2.474,2.476,2.474-2.476-.99-.99-.785.784V83.65a4.906,4.906,0,0,0-4.9-4.9H367.5v1.4h11.2a3.5,3.5,0,0,1,3.5,3.5Z" transform="translate(-345.101 -73.755)"/>
  <path id="Path_125" data-name="Path 125" d="M112.244,320.058v-6.009l.785.785.99-.99-2.474-2.476-2.474,2.476.99.99.785-.784v6.009a4.906,4.906,0,0,0,4.9,4.9h11.2v-1.4h-11.2a3.5,3.5,0,0,1-3.5-3.5Z" transform="translate(-107.344 -287.763)"/>
  <path id="Path_126" data-name="Path 126" d="M327.951,255.85a2.1,2.1,0,1,0-.615,1.485A2.1,2.1,0,0,0,327.951,255.85Zm-2.1.7a.7.7,0,1,1,.495-.2A.7.7,0,0,1,325.851,256.55Z" transform="translate(-304.851 -234.755)"/>
</svg>
