<svg id="Component_4_1" data-name="Component 4 – 1" xmlns="http://www.w3.org/2000/svg" width="42" height="44.727" viewBox="0 0 42 44.727">
  <path id="Path_65" data-name="Path 65" d="M201.907,78.6H171.1a.971.971,0,0,0-.972.972v9.989h-8.278a.971.971,0,0,0-.972.972v31.823a.971.971,0,0,0,.972.972h31.824a.971.971,0,0,0,.972-.972V111.347h7.261a.972.972,0,0,0,.972-.972V79.57a.971.971,0,0,0-.972-.972Zm-9.2,42.784H162.822V91.5h7.307v18.874a.971.971,0,0,0,.972.972h21.6Zm0-11.978H172.072V91.5H192.7Zm8.233,0h-6.289V90.53a.971.971,0,0,0-.972-.972h-21.6V80.541h28.864Z" transform="translate(-160.879 -78.598)"/>
  <path id="Path_66" data-name="Path 66" d="M289.722,231.381h12.631a.971.971,0,0,0,.972-.972V219.722a.972.972,0,0,0-.972-.972H289.722a.972.972,0,0,0-.972.972v10.688a.971.971,0,0,0,.972.972Zm.972-10.688h10.688v8.744H290.693Z" transform="translate(-274.551 -203.188)"/>
  <path id="Path_67" data-name="Path 67" d="M330.4,248.35a3.029,3.029,0,1,0,2.6,1.524,3.03,3.03,0,0,0-2.6-1.524Zm0,4.114h0a1.086,1.086,0,1,1,1.071-1.086,1.086,1.086,0,0,1-1.071,1.086Z" transform="translate(-308.914 -229.501)"/>
</svg>
